<svg width="37" height="37" viewBox="0 0 37 37" fill="none" xmlns="http://www.w3.org/2000/svg">
    <path d="M27.75 17.6462C28.0346 18.0731 28.3192 18.5 28.4615 19.2115H23.9077C23.9077 19.0692 23.9077 18.7846 24.05 18.5C24.1923 18.2154 24.1923 18.0731 24.4769 17.7885C24.6192 17.5038 24.9038 17.3615 25.1885 17.2192C25.4731 17.0769 25.9 16.9346 26.3269 16.9346C26.8962 17.0769 27.4654 17.2192 27.75 17.6462ZM14.6577 16.65C14.9423 16.3654 15.2269 15.9385 15.2269 15.3692C15.2269 15.0846 15.2269 14.8 15.0846 14.5154C14.9423 14.3731 14.8 14.0885 14.6577 14.0885C14.5154 13.9462 14.2308 13.9462 13.9462 13.8038H10.2462V17.0769H13.3769C13.8038 17.0769 14.2308 16.9346 14.6577 16.65ZM13.5192 19.0692H10.2462V22.9115H13.5192C13.8038 22.9115 14.0885 22.9115 14.3731 22.7692C14.6577 22.7692 14.9423 22.6269 15.0846 22.4846C15.2269 22.3423 15.5115 22.2 15.6538 21.9154C15.7962 21.6308 15.7962 21.3462 15.7962 21.0615C15.7962 20.35 15.6538 19.7808 15.2269 19.4962C14.8 19.2115 14.2308 19.0692 13.5192 19.0692ZM37 6.97308V30.0269C37 33.8692 33.8692 37 30.0269 37H6.97308C3.13077 37 0 33.8692 0 30.0269V6.97308C0 3.13077 3.13077 0 6.97308 0H30.0269C33.8692 0 37 3.13077 37 6.97308ZM23.3385 13.6615H29.0308V12.2385H23.3385V13.6615ZM18.7846 21.3462C18.7846 20.4923 18.6423 19.7808 18.2154 19.0692C17.7885 18.5 17.2192 18.0731 16.3654 17.7885C16.9346 17.5038 17.5038 17.0769 17.7885 16.65C18.0731 16.2231 18.2154 15.6538 18.2154 14.9423C18.2154 14.2308 18.0731 13.8038 17.9308 13.2346C17.6462 12.8077 17.3615 12.3808 17.0769 12.2385C16.65 11.9538 16.2231 11.8115 15.6538 11.6692C14.9423 11.3846 14.3731 11.3846 13.6615 11.3846H7.11538V25.3308H13.9462C14.5154 25.3308 15.2269 25.1885 15.7962 25.0462C16.3654 24.9038 16.9346 24.6192 17.3615 24.3346C17.7885 24.05 18.2154 23.6231 18.5 23.0538C18.6423 22.6269 18.7846 22.0577 18.7846 21.3462ZM23.9077 20.9192H31.1654C31.1654 20.0654 31.1654 19.3538 31.0231 18.6423C30.8808 17.9308 30.5962 17.2192 30.1692 16.7923C29.7423 16.2231 29.1731 15.7962 28.6038 15.5115C27.8923 15.2269 27.1808 14.9423 26.3269 14.9423C25.6154 14.9423 24.9038 15.0846 24.1923 15.3692C23.6231 15.6538 23.0538 16.0808 22.4846 16.5077C22.0577 16.9346 21.6308 17.5038 21.4885 18.2154C21.2038 18.9269 21.0615 19.6385 21.0615 20.35C21.0615 21.0615 21.2038 21.9154 21.4885 22.4846C21.7731 23.1962 22.0577 23.7654 22.4846 24.1923C22.9115 24.6192 23.4808 25.0462 24.05 25.3308C24.7615 25.6154 25.4731 25.7577 26.1846 25.7577C27.3231 25.7577 28.3192 25.4731 29.1731 24.9038C30.0269 24.3346 30.5962 23.4808 31.0231 22.3423H28.6038C28.4615 22.6269 28.3192 22.9115 27.8923 23.1962C27.4654 23.4808 27.0385 23.6231 26.4692 23.6231C25.7577 23.6231 25.0462 23.4808 24.6192 23.0538C24.1923 22.4846 23.9077 21.7731 23.9077 20.9192Z" fill="#FF2605"/>
</svg>