<svg width="145" height="47" viewBox="0 0 145 47" fill="none" xmlns="http://www.w3.org/2000/svg">
    <path d="M76.5186 12.0987C76.5186 13.7503 75.2032 15.0808 73.5703 15.0808C71.9374 15.0808 70.622 13.7503 70.622 12.0987C70.622 10.447 71.8921 9.11654 73.5703 9.11654C75.2485 9.16242 76.5186 10.4929 76.5186 12.0987ZM64.3627 18.1089C64.3627 18.3841 64.3627 18.8429 64.3627 18.8429C64.3627 18.8429 62.9566 17.0078 59.9629 17.0078C55.0189 17.0078 51.1635 20.8157 51.1635 26.0919C51.1635 31.3221 54.9736 35.1759 59.9629 35.1759C63.0019 35.1759 64.3627 33.2949 64.3627 33.2949V34.0748C64.3627 34.4419 64.6348 34.7171 64.9977 34.7171H68.6717V17.4666C68.6717 17.4666 65.3152 17.4666 64.9977 17.4666C64.6348 17.4666 64.3627 17.7877 64.3627 18.1089ZM64.3627 29.1658C63.6823 30.1751 62.3216 31.0468 60.6887 31.0468C57.7858 31.0468 55.5632 29.2116 55.5632 26.0919C55.5632 22.9721 57.7858 21.1369 60.6887 21.1369C62.2762 21.1369 63.7276 22.0545 64.3627 23.0179V29.1658ZM71.3931 17.4666H75.7475V34.7171H71.3931V17.4666ZM136.436 17.0078C133.443 17.0078 132.037 18.8429 132.037 18.8429V9.16242H127.682V34.7171C127.682 34.7171 131.039 34.7171 131.356 34.7171C131.719 34.7171 131.991 34.396 131.991 34.0748V33.2949C131.991 33.2949 133.397 35.1759 136.391 35.1759C141.335 35.1759 145.19 31.3221 145.19 26.0919C145.19 20.8616 141.335 17.0078 136.436 17.0078ZM135.711 31.0009C134.032 31.0009 132.717 30.1292 132.037 29.1199V22.9721C132.717 22.0545 134.168 21.091 135.711 21.091C138.613 21.091 140.836 22.9262 140.836 26.046C140.836 29.1658 138.613 31.0009 135.711 31.0009ZM125.414 24.4861V34.763H121.06V24.9908C121.06 22.1462 120.153 20.9993 117.703 20.9993C116.388 20.9993 115.027 21.6874 114.166 22.6968V34.7171H109.811V17.4666H113.258C113.621 17.4666 113.893 17.7877 113.893 18.1089V18.8429C115.163 17.5124 116.842 17.0078 118.52 17.0078C120.425 17.0078 122.012 17.5583 123.283 18.6594C124.825 19.944 125.414 21.5957 125.414 24.4861ZM99.2429 17.0078C96.2492 17.0078 94.8431 18.8429 94.8431 18.8429V9.16242H90.4888V34.7171C90.4888 34.7171 93.8453 34.7171 94.1628 34.7171C94.5256 34.7171 94.7978 34.396 94.7978 34.0748V33.2949C94.7978 33.2949 96.2039 35.1759 99.1975 35.1759C104.141 35.1759 107.997 31.3221 107.997 26.0919C108.042 20.8616 104.187 17.0078 99.2429 17.0078ZM98.5171 31.0009C96.8389 31.0009 95.5235 30.1292 94.8431 29.1199V22.9721C95.5235 22.0545 96.975 21.091 98.5171 21.091C101.42 21.091 103.643 22.9262 103.643 26.046C103.643 29.1658 101.42 31.0009 98.5171 31.0009ZM86.7241 17.0078C88.0395 17.0078 88.7198 17.2372 88.7198 17.2372V21.3204C88.7198 21.3204 85.0912 20.0817 82.8233 22.6968V34.763H78.469V17.4666C78.469 17.4666 81.8254 17.4666 82.1429 17.4666C82.5058 17.4666 82.7779 17.7877 82.7779 18.1089V18.8429C83.5944 17.8795 85.3633 17.0078 86.7241 17.0078ZM41.5023 33.1572C41.2755 32.6067 41.0487 32.0103 40.8219 31.5056C40.4591 30.6798 40.0962 29.8998 39.7787 29.1658L39.7333 29.1199C36.6037 22.238 33.2472 15.2644 29.7093 8.38247L29.5732 8.1072C29.2103 7.41901 28.8475 6.68494 28.4846 5.95088C28.031 5.12505 27.5774 4.25335 26.8517 3.42752C25.4003 1.59235 23.3138 0.583008 21.0913 0.583008C18.8234 0.583008 16.7823 1.59235 15.2855 3.33576C14.6051 4.16159 14.1062 5.03329 13.6526 5.85912C13.2897 6.59318 12.9269 7.32725 12.564 8.01544L12.4279 8.29072C8.93537 15.1726 5.53353 22.1462 2.40384 29.0281L2.35848 29.1199C2.04098 29.8539 1.67811 30.6339 1.31525 31.4597C1.08846 31.9644 0.861673 32.5149 0.634883 33.1114C0.0452314 34.8089 -0.1362 36.4147 0.0905893 38.0663C0.589526 41.5073 2.85742 44.3977 5.98711 45.6823C7.16641 46.187 8.39108 46.4163 9.6611 46.4163C10.024 46.4163 10.4775 46.3705 10.8404 46.3246C12.3372 46.1411 13.8794 45.6364 15.3762 44.7647C17.2359 43.7095 19.0048 42.1955 21.0006 39.9933C22.9963 42.1955 24.8106 43.7095 26.6249 44.7647C28.1217 45.6364 29.6639 46.1411 31.1607 46.3246C31.5236 46.3705 31.9772 46.4163 32.34 46.4163C33.61 46.4163 34.8801 46.187 36.014 45.6823C39.1891 44.3977 41.4116 41.4614 41.9105 38.0663C42.2734 36.4606 42.092 34.8548 41.5023 33.1572ZM21.0459 35.543C18.5966 32.4232 17.0091 29.4869 16.4648 27.0094C16.238 25.9542 16.1926 25.0366 16.3287 24.2108C16.4194 23.4767 16.6916 22.8344 17.0544 22.2839C17.9162 21.0451 19.3677 20.2652 21.0459 20.2652C22.7242 20.2652 24.221 20.9993 25.0374 22.2839C25.4003 22.8344 25.6724 23.4767 25.7631 24.2108C25.8992 25.0366 25.8538 26.0001 25.6271 27.0094C25.0828 29.441 23.4952 32.3773 21.0459 35.543ZM39.1437 37.6993C38.8262 40.085 37.2387 42.1496 35.0161 43.0672C33.9275 43.526 32.7482 43.6636 31.5689 43.526C30.435 43.3883 29.301 43.0213 28.1217 42.3331C26.4889 41.4155 24.856 39.9933 22.9509 37.8828C25.9446 34.1666 27.7589 30.7715 28.4392 27.7435C28.7568 26.3212 28.8021 25.0366 28.666 23.8438C28.4846 22.6968 28.0764 21.6416 27.4414 20.724C26.0353 18.6594 23.6767 17.4666 21.0459 17.4666C18.4152 17.4666 16.0566 18.7053 14.6505 20.724C14.0154 21.6416 13.6072 22.6968 13.4258 23.8438C13.2444 25.0366 13.2897 26.3671 13.6526 27.7435C14.333 30.7715 16.1926 34.2125 19.1409 37.9287C17.2812 40.0391 15.603 41.4614 13.9701 42.379C12.7908 43.0672 11.6568 43.4342 10.5229 43.5718C9.29823 43.7095 8.11893 43.526 7.0757 43.113C4.85316 42.1955 3.26564 40.1309 2.94813 37.7452C2.81206 36.5982 2.90278 35.4512 3.35635 34.1666C3.49243 33.7078 3.71922 33.249 3.94601 32.6985C4.26351 31.9644 4.62637 31.1844 4.98924 30.4045L5.0346 30.3127C8.16429 23.4767 11.5208 16.5031 15.0133 9.71297L15.1494 9.4377C15.5123 8.74951 15.8751 8.01544 16.238 7.32725C16.6008 6.59318 17.0091 5.905 17.508 5.30857C18.4605 4.20747 19.7305 3.61104 21.1366 3.61104C22.5427 3.61104 23.8127 4.20747 24.7653 5.30857C25.2642 5.905 25.6724 6.59318 26.0353 7.32725C26.3981 8.01544 26.761 8.74951 27.1239 9.4377L27.2599 9.71297C30.7071 16.549 34.0636 23.5226 37.1933 30.3586V30.4045C37.5562 31.1386 37.8737 31.9644 38.2365 32.6985C38.4633 33.249 38.6901 33.7078 38.8262 34.1666C39.1891 35.3595 39.3251 36.5064 39.1437 37.6993Z" fill="#6A6969"/>
</svg>