<svg width="126" height="55" viewBox="0 0 126 55" fill="none" xmlns="http://www.w3.org/2000/svg">
    <g clip-path="url(#clip0_215_504)">
        <path fill-rule="evenodd" clip-rule="evenodd" d="M77.5999 43.3207C70.3686 48.6951 59.8872 51.5626 50.8629 51.5626C38.2095 51.5626 26.8181 46.8436 18.2001 38.9949C17.523 38.3777 18.1297 37.5366 18.9422 38.0172C28.2427 43.4736 39.7424 46.7562 51.6213 46.7562C59.6326 46.7562 68.4456 45.0849 76.549 41.6166C77.7732 41.0922 78.797 42.4249 77.5999 43.3207Z" fill="#6A6969"/>
        <path fill-rule="evenodd" clip-rule="evenodd" d="M80.6062 39.8524C79.6854 38.6617 74.4962 39.2899 72.167 39.5684C71.4574 39.6558 71.3491 39.0332 71.9883 38.5853C76.1212 35.6523 82.9029 36.4988 83.6938 37.482C84.4846 38.4706 83.4879 45.3252 79.6042 48.5969C79.0083 49.0994 78.4396 48.8317 78.705 48.1654C79.5771 45.9697 81.5325 41.0486 80.6062 39.8524Z" fill="#6A6969"/>
        <path fill-rule="evenodd" clip-rule="evenodd" d="M72.3291 17.8792V15.0281C72.3291 14.5966 72.6541 14.3071 73.0442 14.3071H85.703C86.1093 14.3071 86.4343 14.6021 86.4343 15.0281V17.4695C86.4289 17.8792 86.0876 18.4144 85.4809 19.261L78.9213 28.7046C81.3588 28.6445 83.9318 29.0104 86.1418 30.2667C86.6401 30.5507 86.7755 30.9658 86.8135 31.3754V34.4177C86.8135 34.8328 86.3585 35.3189 85.8818 35.0676C81.9872 33.0085 76.8142 32.7846 72.5079 35.0895C72.0691 35.3298 71.6087 34.8492 71.6087 34.4341V31.5447C71.6087 31.0805 71.6141 30.2885 72.0745 29.5839L79.6742 18.5947H73.0604C72.6541 18.5947 72.3291 18.3052 72.3291 17.8792Z" fill="#6A6969"/>
        <path fill-rule="evenodd" clip-rule="evenodd" d="M26.1515 35.6685H22.3003C21.9319 35.6412 21.6394 35.3626 21.6123 35.0076V15.0773C21.6123 14.6786 21.9428 14.3618 22.3544 14.3618H25.9457C26.3195 14.3781 26.6174 14.6676 26.6445 15.0281V17.6334H26.7149C27.652 15.1155 29.4124 13.9412 31.7849 13.9412C34.1954 13.9412 35.7012 15.1155 36.7846 17.6334C37.7162 15.1155 39.8342 13.9412 42.1038 13.9412C43.718 13.9412 45.4838 14.613 46.5618 16.1205C47.7805 17.7973 47.5313 20.2333 47.5313 22.3689L47.5259 34.9475C47.5259 35.3462 47.1955 35.6685 46.7838 35.6685H42.938C42.5534 35.6412 42.2446 35.3299 42.2446 34.9475V24.3843C42.2446 23.5432 42.3205 21.4458 42.1363 20.6484C41.8492 19.3102 40.9879 18.9333 39.8721 18.9333C38.9404 18.9333 37.9654 19.5615 37.57 20.5664C37.1746 21.5714 37.2125 23.2537 37.2125 24.3843V34.9475C37.2125 35.3462 36.8821 35.6685 36.4704 35.6685H32.6245C32.2345 35.6412 31.9312 35.3299 31.9312 34.9475L31.9258 24.3843C31.9258 22.1613 32.2887 18.8897 29.5532 18.8897C26.7853 18.8897 26.8936 22.0794 26.8936 24.3843V34.9475C26.8936 35.3462 26.5632 35.6685 26.1515 35.6685Z" fill="#6A6969"/>
        <path fill-rule="evenodd" clip-rule="evenodd" d="M97.3326 13.9412C103.047 13.9412 106.14 18.8897 106.14 25.1817C106.14 31.2608 102.722 36.0836 97.3326 36.0836C91.7209 36.0836 88.6658 31.1351 88.6658 24.9687C88.6658 18.764 91.7588 13.9412 97.3326 13.9412ZM97.3651 18.0103C94.5267 18.0103 94.348 21.9101 94.348 24.3406C94.348 26.7766 94.3101 31.9763 97.3326 31.9763C100.317 31.9763 100.458 27.7816 100.458 25.2254C100.458 23.5432 100.388 21.5332 99.8839 19.9383C99.4505 18.551 98.5893 18.0103 97.3651 18.0103Z" fill="#6A6969"/>
        <path fill-rule="evenodd" clip-rule="evenodd" d="M113.55 35.6685H109.715C109.331 35.6412 109.022 35.3299 109.022 34.9475L109.017 15.0117C109.049 14.6458 109.369 14.3618 109.759 14.3618H113.328C113.664 14.3781 113.94 14.6076 114.016 14.9189V17.9666H114.087C115.165 15.2411 116.676 13.9412 119.335 13.9412C121.063 13.9412 122.748 14.5693 123.831 16.2898C124.839 17.8847 124.839 20.5664 124.839 22.4945V35.0404C124.796 35.3899 124.476 35.6685 124.097 35.6685H120.235C119.883 35.6412 119.59 35.379 119.552 35.0404V24.215C119.552 22.0357 119.801 18.846 117.142 18.846C116.205 18.846 115.343 19.4795 114.915 20.4408C114.374 21.6588 114.303 22.8713 114.303 24.215V34.9475C114.298 35.3462 113.962 35.6685 113.55 35.6685Z" fill="#6A6969"/>
        <path fill-rule="evenodd" clip-rule="evenodd" d="M62.2378 26.1484C62.2378 27.6614 62.2757 28.9231 61.5174 30.2667C60.9053 31.3591 59.9303 32.0309 58.8524 32.0309C57.3736 32.0309 56.5069 30.8948 56.5069 29.218C56.5069 25.9081 59.4482 25.3073 62.2378 25.3073V26.1484ZM66.1216 35.6138C65.867 35.8432 65.4987 35.8596 65.2116 35.7067C63.9332 34.6362 63.7003 34.1391 63.0016 33.1178C60.889 35.2916 59.3886 35.9415 56.6532 35.9415C53.4086 35.9415 50.8898 33.9261 50.8898 29.8898C50.8898 26.7383 52.5798 24.5918 54.9957 23.5431C57.0865 22.6146 60.0061 22.4508 62.2378 22.194V21.6916C62.2378 20.7685 62.3082 19.6761 61.7666 18.8787C61.3007 18.1632 60.4015 17.8682 59.6053 17.8682C58.1374 17.8682 56.8319 18.6274 56.5123 20.2005C56.4473 20.55 56.1928 20.8941 55.8407 20.9105L52.1085 20.5063C51.7944 20.4353 51.4423 20.1786 51.5344 19.6925C52.3902 15.1264 56.4853 13.75 60.147 13.75C62.0211 13.75 64.4695 14.2525 65.9483 15.6835C67.8224 17.4477 67.6437 19.8017 67.6437 22.3634V28.4151C67.6437 30.2339 68.3912 31.0313 69.0954 32.0145C69.3391 32.364 69.3933 32.7846 69.0791 33.0468C68.2937 33.7076 66.8962 34.9366 66.127 35.6248L66.1216 35.6138Z" fill="#6A6969"/>
        <path fill-rule="evenodd" clip-rule="evenodd" d="M11.7484 26.1484C11.7484 27.6614 11.7863 28.923 11.028 30.2667C10.4159 31.359 9.44631 32.0308 8.36297 32.0308C6.8842 32.0308 6.02295 30.8948 6.02295 29.218C6.02295 25.9081 8.96422 25.3073 11.7484 25.3073V26.1484ZM15.6322 35.6138C15.3776 35.8432 15.0093 35.8596 14.7222 35.7067C13.4439 34.6362 13.2163 34.1391 12.5122 33.1178C10.3997 35.2916 8.90464 35.9415 6.16378 35.9415C2.92458 35.9415 0.400391 33.9261 0.400391 29.8898C0.400391 26.7383 2.09582 24.5918 4.50626 23.5431C6.59712 22.6146 9.51673 22.4507 11.7484 22.194V21.6915C11.7484 20.7685 11.8188 19.6761 11.2826 18.8787C10.8113 18.1632 9.91215 17.8682 9.12131 17.8682C7.65338 17.8682 6.34253 18.6274 6.02295 20.2005C5.95794 20.55 5.70336 20.8941 5.35669 20.9105L1.61915 20.5063C1.30498 20.4353 0.958312 20.1786 1.04498 19.6925C1.90624 15.1264 5.99586 13.75 9.65757 13.75C11.5317 13.75 13.9801 14.2525 15.4589 15.6835C17.3331 17.4477 17.1543 19.8017 17.1543 22.3634V28.4151C17.1543 30.2339 17.9018 31.0313 18.606 32.0145C18.8552 32.364 18.9093 32.7846 18.5951 33.0467C17.8097 33.7076 16.4122 34.9366 15.643 35.6247L15.6322 35.6138Z" fill="#6A6969"/>
    </g>
    <defs>
        <clipPath id="clip0_215_504">
            <rect width="125" height="55" fill="white" transform="translate(0.400391)"/>
        </clipPath>
    </defs>
</svg>