<svg width="162" height="46" viewBox="0 0 162 46" fill="none" xmlns="http://www.w3.org/2000/svg">
    <path d="M63.5346 13.3628V17.1428H53.3891V21.2732H62.7294V25.0802H53.3891V33.0242H48.511V13.3628H63.5346Z" fill="#6A6969"/>
    <path d="M67.5204 13.3359H71.7343V16.6712H67.5204V13.3359ZM67.5204 18.4568H71.7343V33.0175H67.5204V18.4568Z" fill="#6A6969"/>
    <path d="M74.7535 18.4837H79.2492C81.0274 24.9454 81.3293 26.2661 81.799 29.0421C82.3828 25.8146 82.47 25.4575 83.3289 22.0279L84.2146 18.4702H88.5962L83.8992 33.004H79.4438L74.7535 18.4837Z" fill="#6A6969"/>
    <path d="M104.767 29.3116C104.273 30.1052 103.685 30.8359 103.016 31.488C101.519 32.8414 99.5684 33.5777 97.5541 33.5498C93.2531 33.5498 90.2336 30.767 90.2336 26.0302C90.2336 22.5197 91.9513 18.0053 97.6615 18.0053C98.6267 17.9757 99.5877 18.1459 100.485 18.5052C101.382 18.8646 102.195 19.4054 102.875 20.094C104.767 22.1154 104.888 24.9723 104.928 26.6097H94.595C94.595 28.4222 95.5881 30.228 97.9098 30.228C100.231 30.228 101.043 28.6917 101.573 27.6675L104.767 29.3116ZM100.52 23.9212C100.485 23.1637 100.202 22.4389 99.7147 21.8594C99.1507 21.332 98.4052 21.0446 97.6347 21.0576C97.229 21.055 96.8272 21.1376 96.4551 21.3C96.083 21.4625 95.7489 21.7012 95.474 22.0009C95.0127 22.5466 94.715 23.2125 94.6152 23.9212H100.52Z" fill="#6A6969"/>
    <path d="M109.156 14.2792H113.403V18.8206H116.201V21.4349H113.376V28.0112C113.376 28.9006 113.376 29.6754 114.483 29.6754L116.013 29.6216V32.9569C115.271 33.0913 114.519 33.1656 113.765 33.1792C112.289 33.1792 110.686 33.0984 109.739 31.7575C109.156 30.895 109.129 29.8641 109.129 28.4761V21.408H107.022V18.7869H109.129L109.156 14.2792Z" fill="#6A6969"/>
    <path d="M123.877 19.9863C125.04 18.9637 126.519 18.3758 128.064 18.322V22.1222L126.655 22.3445C124.602 22.7017 123.971 23.0183 123.971 24.8511V33.0175H119.724V18.4567H123.884L123.877 19.9863Z" fill="#6A6969"/>
    <path d="M131.151 22.6208C131.143 22.0011 131.276 21.3877 131.541 20.828C131.807 20.2684 132.196 19.7775 132.681 19.3933C134.023 18.3422 135.727 18.1198 137.425 18.1198C139.122 18.1198 143.511 18.5308 143.511 22.2906V30.7064C143.511 32.2696 143.591 32.4919 143.927 32.9906H139.767V31.643C138.659 32.4515 137.465 33.3746 135.338 33.3746C132.023 33.3746 130.601 30.9759 130.601 28.9275C130.601 26.5894 132.459 25.2553 133.647 24.7567C135.512 24.1559 137.421 23.7052 139.357 23.4091V22.6275C139.304 21.9537 139.25 20.842 137.7 20.842C135.814 20.842 135.559 22.0144 135.452 22.5467L131.151 22.6208ZM136.559 27.0005C135.841 27.2767 134.727 27.6743 134.727 28.8063C134.75 29.2174 134.933 29.603 135.237 29.8793C135.541 30.1556 135.942 30.3002 136.351 30.2819C136.875 30.2657 137.384 30.1023 137.821 29.8102C139.23 28.9208 139.29 27.5867 139.324 26.0774L136.559 27.0005Z" fill="#6A6969"/>
    <path d="M152.663 19.7908C153.056 19.3081 153.551 18.9192 154.113 18.6521C154.946 18.3008 155.839 18.1132 156.743 18.0995C157.638 18.0776 158.525 18.2766 159.326 18.679C160.849 19.4876 161.239 20.7948 161.239 23.052V33.0174H156.998V24.8308C157.071 24.1018 157.005 23.3654 156.803 22.6612C156.635 22.3024 156.362 22.0037 156.02 21.805C155.679 21.6063 155.285 21.5171 154.891 21.5494C152.643 21.5494 152.643 23.3619 152.643 25.1677V33.0174H148.389V18.5106H152.69L152.663 19.7908Z" fill="#6A6969"/>
    <path d="M22.4696 23.0385H26.972C27.15 23.0385 27.3206 22.9675 27.4465 22.8412C27.5723 22.7148 27.643 22.5434 27.643 22.3647C27.6427 22.2723 27.6244 22.1807 27.5893 22.0952L19.846 0.93122C19.7982 0.806699 19.7147 0.699244 19.6059 0.622471C19.4972 0.545699 19.3683 0.503077 19.2354 0.5H14.7196C14.5416 0.5 14.371 0.570978 14.2451 0.69734C14.1193 0.823702 14.0486 0.995096 14.0486 1.1738C14.0487 1.25193 14.0623 1.32944 14.0889 1.40289L21.8389 22.6208C21.8901 22.746 21.9776 22.8528 22.0901 22.9273C22.2026 23.0018 22.3349 23.0406 22.4696 23.0385Z" fill="#6A6969"/>
    <path d="M21.671 45.5299H26.1734C26.3513 45.5299 26.522 45.4589 26.6478 45.3325C26.7737 45.2062 26.8444 45.0348 26.8444 44.8561C26.8443 44.778 26.8307 44.7004 26.8041 44.627L10.8411 0.944665C10.7928 0.819095 10.7083 0.710924 10.5983 0.634065C10.4882 0.557206 10.3578 0.515192 10.2238 0.513445H5.72808C5.55012 0.513445 5.37946 0.584423 5.25362 0.710785C5.12779 0.837146 5.05708 1.00854 5.05708 1.18724C5.05718 1.26537 5.0708 1.34289 5.09734 1.41633L21.0604 45.1054C21.1092 45.2287 21.1932 45.3347 21.3018 45.4102C21.4105 45.4857 21.5389 45.5274 21.671 45.5299Z" fill="#6A6969"/>
    <path d="M12.8006 45.5299H17.2962C17.4652 45.5305 17.6283 45.4669 17.7527 45.352C17.8771 45.2371 17.9537 45.0792 17.9672 44.91C17.967 44.8209 17.9534 44.7323 17.9269 44.6472L10.1568 23.463C10.109 23.3385 10.0255 23.231 9.91676 23.1543C9.80805 23.0775 9.67907 23.0349 9.5462 23.0318H5.02369C4.8528 23.0421 4.69229 23.1176 4.57503 23.2429C4.45778 23.3681 4.39264 23.5337 4.39295 23.7056C4.39274 23.7794 4.4064 23.8525 4.43321 23.9212L12.1698 45.1122C12.221 45.2374 12.3085 45.3442 12.421 45.4187C12.5335 45.4932 12.6658 45.5319 12.8006 45.5299Z" fill="#6A6969"/>
    <path d="M23.0131 1.4231L26.6432 11.3347C26.691 11.4592 26.7745 11.5667 26.8833 11.6434C26.992 11.7202 27.1209 11.7628 27.2538 11.7659H31.7361C31.914 11.7659 32.0847 11.6949 32.2105 11.5685C32.3364 11.4422 32.4071 11.2708 32.4071 11.0921C32.407 11.014 32.3933 10.9364 32.3668 10.863L28.7367 0.944689C28.6889 0.820168 28.6054 0.712713 28.4967 0.63594C28.3879 0.559167 28.259 0.516545 28.1261 0.513469H23.6237C23.4457 0.513469 23.2751 0.584447 23.1492 0.710809C23.0234 0.83717 22.9527 1.00856 22.9527 1.18727C22.9584 1.26891 22.9789 1.34883 23.0131 1.4231Z" fill="#6A6969"/>
    <path d="M4.50029 45.5299H8.99598C9.17393 45.5299 9.34459 45.4589 9.47043 45.3326C9.59627 45.2062 9.66697 45.0348 9.66697 44.8561C9.66688 44.778 9.65326 44.7005 9.62671 44.627L5.97649 34.6885C5.92825 34.5629 5.8437 34.4548 5.73367 34.3779C5.62365 34.3011 5.4932 34.259 5.35919 34.2573H0.870215C0.692256 34.2573 0.521595 34.3283 0.395759 34.4546C0.269923 34.581 0.199219 34.7524 0.199219 34.9311C0.199464 35.0114 0.21307 35.0911 0.239477 35.1669L3.86955 45.1054C3.91969 45.2319 4.00683 45.3401 4.11941 45.4159C4.232 45.4917 4.36476 45.5314 4.50029 45.5299Z" fill="#6A6969"/>
</svg>