<svg width="36" height="37" viewBox="0 0 36 37" fill="none" xmlns="http://www.w3.org/2000/svg">
    <mask id="mask0_235_796" style="mask-type:luminance" maskUnits="userSpaceOnUse" x="0" y="0" width="36" height="37">
        <path d="M35 18.5C35.0029 20.7392 34.562 22.9567 33.7028 25.0245C32.8436 27.0922 31.5832 28.9692 29.9943 30.547C28.4185 32.1201 26.5481 33.3672 24.49 34.2171C22.432 35.0669 20.2266 35.5029 18 35.5C8.61091 35.5 1.00002 27.8891 1.00002 18.5C0.994072 14.141 2.66845 9.94744 5.67501 6.79126C7.2614 5.11727 9.17269 3.78459 11.2919 2.87479C13.4111 1.96498 15.6937 1.49718 18 1.50001C20.2266 1.49713 22.432 1.93307 24.49 2.78293C26.5481 3.63278 28.4185 4.87989 29.9943 6.45296C31.5832 8.03075 32.8436 9.90776 33.7028 11.9755C34.562 14.0433 35.0029 16.2608 35 18.5Z" fill="white" stroke="white" stroke-width="2" stroke-linecap="round" stroke-linejoin="round"/>
        <path d="M35.0008 18.5001C32.5205 18.5001 25.678 17.5651 19.5538 20.2537C12.9008 23.1751 8.08387 27.7065 5.98438 30.5251" stroke="black" stroke-width="2" stroke-linecap="round" stroke-linejoin="round"/>
        <path d="M11.625 2.73535C14.2855 5.191 20.091 11.4427 22.25 17.6494C24.409 23.8561 25.208 31.4874 25.701 33.6592" stroke="black" stroke-width="2" stroke-linecap="round" stroke-linejoin="round"/>
        <path d="M1.13086 16.3755C4.34216 16.5693 12.843 16.7435 18.283 14.4205C23.723 12.0974 28.4039 7.8245 30.0096 6.46875" stroke="black" stroke-width="2" stroke-linecap="round" stroke-linejoin="round"/>
        <path d="M2.27501 24.971C3.77298 28.597 6.47461 31.5962 9.92501 33.4634M1.00002 18.5C0.994072 14.141 2.66845 9.94744 5.67501 6.79126C7.2614 5.11727 9.17269 3.78459 11.2919 2.87479C13.4111 1.96498 15.6937 1.49718 18 1.50001M24.8 2.91441C26.736 3.76147 28.4974 4.96141 29.9943 6.45296C31.5832 8.03075 32.8436 9.90776 33.7028 11.9755C34.562 14.0433 35.0029 16.2608 35 18.5C35 20.5927 34.6217 22.5978 33.929 24.45M18 35.5C20.2266 35.5029 22.432 35.0669 24.49 34.2171C26.5481 33.3672 28.4185 32.1201 29.9943 30.547" stroke="white" stroke-width="2" stroke-linecap="round" stroke-linejoin="round"/>
    </mask>
    <g mask="url(#mask0_235_796)">
        <path d="M-2.39844 -1.89941H38.4015V38.9006H-2.39844V-1.89941Z" fill="#FF2605"/>
    </g>
</svg>