<svg width="132" height="55" viewBox="0 0 132 55" fill="none" xmlns="http://www.w3.org/2000/svg">
    <g clip-path="url(#clip0_215_501)">
        <path d="M106.854 16.6836C108.553 16.6836 109.87 15.3301 109.87 13.6297C109.87 11.9639 108.553 10.6104 106.854 10.6104C105.189 10.6104 103.802 11.9639 103.802 13.6297C103.768 15.3301 105.189 16.6836 106.854 16.6836Z" fill="#6A6969"/>
        <path d="M80.8478 18.8004H85.3902V21.5767C86.5344 19.9109 89.0657 18.384 92.0476 18.384C97.6996 18.384 101.999 23.2078 101.999 29.1421C101.999 35.0418 97.6996 39.9003 92.0476 39.9003C89.0657 39.9003 86.569 38.3734 85.3902 36.7076V48.1251H80.8478V18.8004ZM91.2155 22.5137C87.54 22.5137 85.0088 25.3941 85.0088 29.1421C85.0088 32.8555 87.54 35.7706 91.2155 35.7706C94.8563 35.7706 97.3876 32.8902 97.3876 29.1421C97.3876 25.4288 94.8563 22.5137 91.2155 22.5137Z" fill="#6A6969"/>
        <path d="M112.471 18.8004H117.013V21.6114C118.262 19.5292 120.619 18.384 123.289 18.384C128.074 18.384 131.195 21.7849 131.195 27.0252V39.4839H126.653V27.7887C126.653 24.5265 124.988 22.5485 122.353 22.5485C119.336 22.5485 117.013 24.9083 117.013 29.3156V39.4839H112.471V18.8004Z" fill="#6A6969"/>
        <path d="M46.2424 18.384C43.5724 18.384 41.2145 19.5292 39.9663 21.6114V10.6104H35.4238V39.4839H39.9663V29.3157C39.9663 24.9083 42.2894 22.5484 45.3061 22.5484C47.9414 22.5484 49.6057 24.5266 49.6057 27.7887V39.4839H54.1482V27.0253C54.1135 21.785 51.0274 18.384 46.2424 18.384Z" fill="#6A6969"/>
        <path d="M109.073 18.8006H104.531V39.484H109.073V18.8006Z" fill="#6A6969"/>
        <path d="M67.4982 39.9003C61.3955 39.9003 56.6796 35.146 56.6796 29.1422C56.6796 23.1384 61.3955 18.384 67.4982 18.384C73.6009 18.384 78.3166 23.1384 78.3166 29.1422C78.3166 35.146 73.6009 39.9003 67.4982 39.9003ZM67.4982 35.6665C71.139 35.6665 73.7048 32.8208 73.7048 29.1422C73.7048 25.4636 71.139 22.6179 67.4982 22.6179C63.8227 22.6179 61.2567 25.4636 61.2567 29.1422C61.2567 32.8208 63.8227 35.6665 67.4982 35.6665Z" fill="#6A6969"/>
        <path d="M18.8823 16.141C18.8478 17.5238 17.8789 19.4943 16.2526 19.4943C15.249 19.4943 14.4186 18.6646 14.4186 17.6621V17.6275C14.384 16.0027 13.6574 14.5853 12.5154 13.5828C11.6504 12.8568 10.5777 12.3729 9.40116 12.2346C10.4046 11.1975 11.8234 10.5752 13.3805 10.5752C15.3529 10.5752 17.1522 11.716 18.1903 13.3754C18.6748 14.2051 18.917 15.2076 18.8823 16.141Z" fill="#6A6969"/>
        <path d="M12.4464 16.2793C13.3114 17.3855 13.8305 19.4943 12.5849 20.5314C11.7889 21.1882 10.6471 21.0845 9.98959 20.324C8.9169 19.114 7.42897 18.4918 5.94103 18.4572C4.79914 18.4226 3.65723 18.7683 2.68835 19.4251C2.79216 18.0078 3.44962 16.5904 4.66072 15.5878C6.21786 14.3087 8.39785 13.9285 10.2664 14.689C11.1315 15.0001 11.8928 15.5533 12.4464 16.2793Z" fill="#6A6969"/>
        <path d="M7.60189 20.497C8.95142 20.7736 10.7508 22.0873 10.4739 23.6775C10.3009 24.68 9.33205 25.3369 8.32855 25.164H8.29396C6.70221 24.922 5.14507 25.406 4.00318 26.3394C3.1381 27.0308 2.44604 28.0334 2.13461 29.1742C1.30414 27.9988 0.923503 26.5123 1.16572 24.9566C1.54636 22.986 2.96508 21.3267 4.90286 20.6699C5.76793 20.3933 6.73682 20.3242 7.60189 20.497Z" fill="#6A6969"/>
        <path d="M6.59839 26.8578C7.8095 26.201 10.0241 26.0627 10.82 27.4455C11.339 28.3098 11.0276 29.4505 10.1625 29.9692C8.77838 30.7988 7.9133 32.147 7.60188 33.6335C7.39425 34.7398 7.49807 35.9152 8.01711 36.9869C6.63298 36.6412 5.35267 35.7424 4.59141 34.3942C3.58792 32.631 3.62252 30.4532 4.66062 28.7247C5.14506 27.9295 5.80252 27.2727 6.59839 26.8578Z" fill="#6A6969"/>
        <path d="M9.92002 32.3545C10.4391 31.0754 12.0308 29.5543 13.5188 30.1074C14.4877 30.4532 14.9721 31.5248 14.6261 32.4583C14.1069 33.9793 14.3146 35.5696 15.0413 36.8833C15.595 37.8858 16.4254 38.6809 17.4981 39.1994C16.1832 39.8217 14.6606 39.9601 13.2073 39.4069C11.3041 38.7154 9.92002 37.0216 9.6086 35.0164C9.50479 34.1177 9.6086 33.1842 9.92002 32.3545Z" fill="#6A6969"/>
        <path d="M16.0104 34.4286C15.5606 33.1149 15.8028 30.9369 17.3252 30.3838C18.2942 30.0382 19.3323 30.5222 19.6783 31.4901C20.2665 32.9767 21.443 34.0829 22.8617 34.6361C23.8998 35.0508 25.111 35.1199 26.2528 34.8434C25.6646 36.1571 24.5573 37.2288 23.104 37.7819C21.2008 38.4733 19.0208 38.0584 17.5329 36.7102C16.8409 36.0534 16.2873 35.2928 16.0104 34.4286Z" fill="#6A6969"/>
        <path d="M22.0312 32.1126C20.8547 31.3866 19.609 29.5544 20.4394 28.1716C20.9585 27.3074 22.0658 26.9962 22.9654 27.4802C24.3842 28.2407 25.9759 28.3445 27.4293 27.8605C28.5019 27.4802 29.4709 26.7887 30.1629 25.8208C30.5435 27.2036 30.4051 28.7247 29.6092 30.073C28.6058 31.836 26.668 32.9077 24.6611 32.8386C23.6921 32.8386 22.7579 32.5966 22.0312 32.1126Z" fill="#6A6969"/>
        <path d="M25.1455 26.4774C23.7613 26.6849 21.6506 26.0625 21.3738 24.4724C21.1661 23.5044 21.8582 22.5364 22.8617 22.3635H22.8963C24.488 22.0524 25.7684 21.0845 26.5296 19.8054C27.1179 18.8374 27.3947 17.6966 27.2909 16.5212C28.4674 17.3163 29.367 18.5954 29.6093 20.1165C29.9553 22.087 29.1595 24.1613 27.6024 25.4058C26.8757 25.9589 26.0106 26.3738 25.1455 26.4774Z" fill="#6A6969"/>
        <path d="M23.8998 20.1858C22.9656 21.2229 20.9586 22.1218 19.7129 21.0847C18.917 20.4278 18.8132 19.287 19.4706 18.4919C20.4741 17.2474 20.8547 15.6571 20.6125 14.1706C20.4396 13.0643 19.9205 11.9927 19.09 11.1284C20.5088 10.9901 21.9967 11.405 23.2078 12.4075C24.7649 13.6866 25.4916 15.7954 25.0763 17.7659C24.9033 18.6647 24.488 19.529 23.8998 20.1858Z" fill="#6A6969"/>
    </g>
    <defs>
        <clipPath id="clip0_215_501">
            <rect width="131" height="55" fill="white" transform="translate(0.800781)"/>
        </clipPath>
    </defs>
</svg>