<svg width="37" height="37" viewBox="0 0 37 37" fill="none" xmlns="http://www.w3.org/2000/svg">
    <path d="M20.4018 0.00227615C21.7518 -0.00290408 23.1017 0.0106636 24.4513 0.0429749L24.8101 0.0559244C25.2245 0.0707239 25.6334 0.0892232 26.1273 0.111422C28.0956 0.203919 29.4386 0.514709 30.617 0.971643C31.8379 1.44153 32.8665 2.07791 33.895 3.10647C34.8355 4.03071 35.5633 5.1487 36.028 6.38271C36.4849 7.56112 36.7957 8.90602 36.8882 10.8744C36.9104 11.3664 36.9289 11.7771 36.9437 12.1915L36.9548 12.5504C36.9876 13.8994 37.0018 15.2487 36.9973 16.5981L36.9992 17.9781V20.4015C37.0037 21.7515 36.9895 23.1015 36.9566 24.451L36.9455 24.8099C36.9307 25.2243 36.9122 25.6332 36.89 26.1271C36.7975 28.0954 36.483 29.4385 36.028 30.6169C35.5648 31.8522 34.8368 32.9711 33.895 33.895C32.97 34.8353 31.8515 35.5632 30.617 36.028C29.4386 36.4849 28.0956 36.7957 26.1273 36.8882C25.6334 36.9104 25.2245 36.9289 24.8101 36.9437L24.4513 36.9548C23.1017 36.9877 21.7518 37.0018 20.4018 36.9973L19.0218 36.9992H16.6003C15.2503 37.0037 13.9004 36.9895 12.5508 36.9566L12.1919 36.9455C11.7528 36.9296 11.3137 36.9111 10.8748 36.89C8.90651 36.7975 7.56348 36.483 6.38324 36.028C5.14877 35.5643 4.0306 34.8363 3.10706 33.895C2.16554 32.9705 1.43701 31.8518 0.972268 30.6169C0.515341 29.4385 0.204557 28.0954 0.112062 26.1271C0.091459 25.6881 0.0729598 25.2491 0.0565645 24.8099L0.0473152 24.451C0.0132096 23.1015 -0.00220795 21.7515 0.0010674 20.4015V16.5981C-0.00409563 15.2487 0.00947179 13.8994 0.0417654 12.5504L0.0547147 12.1915C0.069514 11.7771 0.088013 11.3664 0.110212 10.8744C0.202707 8.90417 0.513491 7.56297 0.970417 6.38271C1.43543 5.1481 2.16539 4.03041 3.10891 3.10832C4.03182 2.16624 5.14928 1.43704 6.38324 0.971643C7.56348 0.514709 8.90466 0.203919 10.8748 0.111422L12.1919 0.0559244L12.5508 0.046675C13.8997 0.0125858 15.2491 -0.00283198 16.5984 0.000426351L20.4018 0.00227615ZM18.5001 9.25196C17.2746 9.23463 16.0578 9.46105 14.9205 9.91806C13.7832 10.3751 12.7481 11.0536 11.8753 11.9141C11.0025 12.7747 10.3095 13.8001 9.83643 14.9308C9.36339 16.0616 9.11979 17.275 9.11979 18.5007C9.11979 19.7264 9.36339 20.9399 9.83643 22.0706C10.3095 23.2013 11.0025 24.2268 11.8753 25.0873C12.7481 25.9479 13.7832 26.6264 14.9205 27.0834C16.0578 27.5404 17.2746 27.7668 18.5001 27.7495C20.9532 27.7495 23.3059 26.775 25.0405 25.0403C26.7751 23.3057 27.7496 20.953 27.7496 18.4998C27.7496 16.0466 26.7751 13.6939 25.0405 11.9593C23.3059 10.2246 20.9532 9.25196 18.5001 9.25196ZM18.5001 12.9518C19.2373 12.9383 19.9698 13.0717 20.6549 13.3444C21.3399 13.6171 21.9638 14.0236 22.49 14.5401C23.0161 15.0566 23.4341 15.6728 23.7195 16.3527C24.0049 17.0325 24.152 17.7624 24.1521 18.4998C24.1522 19.2371 24.0054 19.9671 23.7202 20.6471C23.4351 21.327 23.0173 21.9433 22.4913 22.46C21.9653 22.9767 21.3416 23.3834 20.6566 23.6563C19.9716 23.9292 19.2392 24.0629 18.502 24.0496C17.0301 24.0496 15.6185 23.4649 14.5777 22.4241C13.537 21.3833 12.9523 19.9717 12.9523 18.4998C12.9523 17.0279 13.537 15.6163 14.5777 14.5755C15.6185 13.5347 17.0301 12.95 18.502 12.95L18.5001 12.9518ZM28.2121 6.47706C27.6153 6.50094 27.0509 6.75482 26.6371 7.18553C26.2233 7.61623 25.9922 8.19035 25.9922 8.78763C25.9922 9.38491 26.2233 9.95902 26.6371 10.3897C27.0509 10.8204 27.6153 11.0743 28.2121 11.0982C28.8254 11.0982 29.4136 10.8546 29.8472 10.4209C30.2809 9.98724 30.5245 9.39907 30.5245 8.78578C30.5245 8.17248 30.2809 7.58431 29.8472 7.15065C29.4136 6.71699 28.8254 6.47336 28.2121 6.47336V6.47706Z" fill="#FF2605"/>
</svg>