<svg width="35" height="35" viewBox="0 0 35 35" fill="none" xmlns="http://www.w3.org/2000/svg">
    <path fill-rule="evenodd" clip-rule="evenodd" d="M0 17.5002C-3.40981e-08 19.7885 0.450711 22.0544 1.3264 24.1685C2.20209 26.2826 3.4856 28.2035 5.10366 29.8215C6.72172 31.4396 8.64264 32.7231 10.7567 33.5988C12.8708 34.4745 15.1367 34.9252 17.425 34.9252C19.7133 34.9252 21.9792 34.4745 24.0933 33.5988C26.2074 32.7231 28.1283 31.4396 29.7463 29.8215C31.3644 28.2035 32.6479 26.2826 33.5236 24.1685C34.3993 22.0544 34.85 19.7885 34.85 17.5002C34.85 12.8788 33.0142 8.44668 29.7463 5.17886C26.4785 1.91104 22.0464 0.0751953 17.425 0.0751953C12.8036 0.0751953 8.37149 1.91104 5.10366 5.17886C1.83584 8.44668 6.88642e-08 12.8788 0 17.5002ZM32.8 17.5002C32.8 21.5779 31.1801 25.4886 28.2968 28.372C25.4134 31.2553 21.5027 32.8752 17.425 32.8752C13.3473 32.8752 9.4366 31.2553 6.55323 28.372C3.66986 25.4886 2.05 21.5779 2.05 17.5002C2.05 13.4225 3.66986 9.5118 6.55323 6.62843C9.4366 3.74506 13.3473 2.1252 17.425 2.1252C21.5027 2.1252 25.4134 3.74506 28.2968 6.62843C31.1801 9.5118 32.8 13.4225 32.8 17.5002Z" fill="#E54F3A"/>
    <path fill-rule="evenodd" clip-rule="evenodd" d="M10.25 17.5001C10.25 26.5119 13.2061 33.9001 17.425 33.9001C21.6439 33.9001 24.6 26.5119 24.6 17.5001C24.6 8.4883 21.6439 1.1001 17.425 1.1001C13.2061 1.1001 10.25 8.4883 10.25 17.5001ZM22.55 17.5001C22.55 25.4725 19.9977 31.8501 17.425 31.8501C14.8523 31.8501 12.3 25.4725 12.3 17.5001C12.3 9.52765 14.8523 3.1501 17.425 3.1501C19.9977 3.1501 22.55 9.52765 22.55 17.5001Z" fill="#E54F3A"/>
    <path d="M4.58214 7.88975L5.95564 6.36865C6.17499 6.56545 6.40869 6.75815 6.65879 6.9447C9.36069 8.9701 13.6247 10.2042 18.272 10.2042C22.2347 10.2042 25.9329 9.30835 28.6348 7.7647C29.2573 7.41247 29.8455 7.00274 30.3916 6.54085L31.7241 8.09885C31.1132 8.6216 30.4203 9.10335 29.6536 9.54205C26.6258 11.2743 22.577 12.2542 18.272 12.2542C13.2085 12.2542 8.50994 10.8951 5.42879 8.5847C5.13602 8.36549 4.85351 8.13496 4.58214 7.88975ZM4.58214 27.1352L5.95564 28.6521C6.17499 28.4553 6.40869 28.2627 6.65879 28.0782C9.36069 26.0528 13.6247 24.8187 18.272 24.8187C22.2347 24.8187 25.9329 25.7125 28.6348 27.2582C29.2928 27.6354 29.8812 28.0454 30.3916 28.4799L31.7241 26.9219C31.0806 26.3773 30.3874 25.8941 29.6536 25.4788C26.6258 23.7486 22.577 22.7687 18.272 22.7687C13.2085 22.7687 8.50994 24.1278 5.42879 26.4361C5.12949 26.6616 4.84659 26.8953 4.58214 27.1352ZM1.02539 18.5252V16.4752H33.8254V18.5252H1.02539Z" fill="#E54F3A"/>
</svg>