<svg width="240" height="55" viewBox="0 0 240 55" fill="none" xmlns="http://www.w3.org/2000/svg">
    <g clip-path="url(#clip0_215_496)">
        <path d="M56.5137 20.1658H36.3521L35.6319 20.7486V38.8858H41.1764V32.0387L41.6804 31.529H56.5135C60.2577 31.529 61.9859 30.5093 61.9859 27.8871V23.7351C61.9861 21.1856 60.2579 20.1658 56.5137 20.1658ZM56.5137 26.867C56.5137 28.1052 55.7216 28.3238 53.9215 28.3238H41.7525L41.1764 27.814V23.9535L41.6804 23.4436H53.9213C55.6495 23.4436 56.5134 23.6621 56.5134 24.9003L56.5137 26.867ZM72.2109 23.5892L77.0352 30.7275L76.7472 31.3831H66.0904L63.3542 34.8067H79.1953L80.3474 35.4622L82.7956 38.8857H89.2041L75.1631 19.9473L72.2109 23.5892ZM135.792 35.2436V30.1449L136.368 29.635H147.097V26.43H130.103V38.8857H155.161V35.6807H136.44L135.792 35.2436ZM130.103 20.1658H155.377V23.6621H130.103V20.1658ZM101.949 23.5164H122.327C122.039 20.8942 120.382 20.1658 116.35 20.1658H101.733C97.1248 20.1658 95.6847 21.0399 95.6847 24.609V34.5152C95.6847 38.0117 97.1248 38.9586 101.733 38.9586H116.35C120.454 38.9586 122.039 38.1573 122.183 35.4622H101.949L101.373 34.8794V23.9535L101.949 23.5164ZM21.951 27.4498H7.18995L6.75789 26.94V23.735L7.18995 23.3709H27.1354L27.4234 22.7153C26.7753 20.967 24.9752 20.0931 21.735 20.0931H7.83794C3.22964 20.0931 1.78951 20.9671 1.78951 24.5362V26.6486C1.78951 30.145 3.22964 31.092 7.83794 31.092H22.5991L23.0311 31.5289V34.8795L22.6711 35.3894H1.35746C1.35746 35.3894 0.853516 35.6807 0.853516 35.7536C1.2135 38.2302 2.86966 38.8857 6.82987 38.8857H21.9511C26.5594 38.8857 28.0716 38.0117 28.0716 34.4425V31.893C28.0715 28.3968 26.5594 27.4498 21.951 27.4498ZM171.29 20.093H162.938L162.506 20.967L171.722 27.8141C173.45 26.7942 175.395 25.7746 177.411 24.7547L171.29 20.093ZM178.779 32.9129L186.915 38.8857H195.268L195.628 38.0844L183.531 29.1251C181.947 30.3633 180.291 31.6017 178.779 32.9129Z" fill="#6A6969"/>
        <path d="M170.066 38.8858H162.506L161.857 37.8659C166.97 32.84 189.868 11.425 239.623 9.16699C239.623 9.16699 197.932 10.6237 170.066 38.8858Z" fill="#6A6969"/>
    </g>
    <defs>
        <clipPath id="clip0_215_496">
            <rect width="239" height="55" fill="white" transform="translate(0.599609)"/>
        </clipPath>
    </defs>
</svg>