<svg width="174" height="55" viewBox="0 0 174 55" fill="none" xmlns="http://www.w3.org/2000/svg">
    <g clip-path="url(#clip0_215_494)">
        <path d="M149.016 26.2815V40.0911H153.397V30.8847H169.419V40.0911H173.8V26.2815H149.016ZM152.896 21.8044H169.794C172.172 21.363 173.862 19.219 174.363 17.2012H148.327C148.828 19.219 150.58 21.2999 152.896 21.8044ZM135.685 40.0911C137.876 39.1452 139.065 37.5057 139.565 35.614H119.851V17.2642H115.407V40.0911H135.685ZM82.5502 21.7413H98.1965C100.575 21.0477 102.515 19.219 103.016 17.2642H78.2318V30.7585H98.5094V35.4879H82.6127C80.1093 36.1815 77.9814 37.884 76.9175 40.0911H102.89V26.2815H82.6127L82.5502 21.7413ZM43.9976 21.8044H60.8956C63.2739 21.363 65.0262 19.219 65.4643 17.2012H39.3662C39.8669 19.219 41.6193 21.2999 43.9976 21.8044ZM43.9976 30.8216H60.8956C63.2739 30.3802 65.0262 28.2362 65.4643 26.2184H39.3662C39.8669 28.2362 41.6193 30.3171 43.9976 30.8216ZM43.9976 40.0911H60.8956C63.2739 39.6497 65.0262 37.5057 65.4643 35.4879H39.3662C39.8669 37.5057 41.6193 39.6497 43.9976 40.0911Z" fill="#6A6969"/>
        <path d="M0 17.2642C0.500683 19.2821 2.25308 21.2999 4.56874 21.8044H11.7035L12.079 21.9305V40.028H16.5226V21.9305L16.8981 21.8044H24.0328C26.411 21.1738 28.1009 19.2821 28.6015 17.2642V17.2012L0 17.2642Z" fill="#6A6969"/>
    </g>
    <defs>
        <clipPath id="clip0_215_494">
            <rect width="174" height="55" fill="white"/>
        </clipPath>
    </defs>
</svg>